<svg xmlns="http://www.w3.org/2000/svg" viewBox="0 0 48 48">
  <!-- Shield body pixel art -->
  <rect x="12" y="0" width="24" height="4" fill="#1A3263"/>
  <rect x="8" y="4" width="32" height="4" fill="#1A3263"/>
  <rect x="4" y="8" width="40" height="4" fill="#1A3263"/>
  <rect x="4" y="12" width="40" height="4" fill="#547792"/>
  <rect x="4" y="16" width="40" height="4" fill="#1A3263"/>
  <rect x="4" y="20" width="40" height="4" fill="#0f1d3a"/>
  <rect x="4" y="24" width="40" height="4" fill="#1A3263"/>
  <rect x="8" y="28" width="32" height="4" fill="#0f1d3a"/>
  <rect x="8" y="32" width="32" height="4" fill="#1A3263"/>
  <rect x="12" y="36" width="24" height="4" fill="#0f1d3a"/>
  <rect x="16" y="40" width="16" height="4" fill="#1A3263"/>
  <rect x="20" y="44" width="8" height="4" fill="#0f1d3a"/>
  
  <!-- Shield emblem (star) -->
  <rect x="22" y="10" width="4" height="4" fill="#FAB95B"/>
  <rect x="14" y="14" width="4" height="4" fill="#FAB95B"/>
  <rect x="18" y="14" width="4" height="4" fill="#fcd077"/>
  <rect x="22" y="14" width="4" height="4" fill="#fcd077"/>
  <rect x="26" y="14" width="4" height="4" fill="#fcd077"/>
  <rect x="30" y="14" width="4" height="4" fill="#FAB95B"/>
  <rect x="18" y="18" width="4" height="4" fill="#FAB95B"/>
  <rect x="22" y="18" width="4" height="4" fill="#fcd077"/>
  <rect x="26" y="18" width="4" height="4" fill="#FAB95B"/>
  <rect x="22" y="22" width="4" height="4" fill="#FAB95B"/>
</svg>
