<svg xmlns="http://www.w3.org/2000/svg" viewBox="0 0 240 60">
  <!-- Left sword (pixel art style) -->
  <g transform="translate(4, 6)">
    <!-- Blade with dark outline -->
    <rect x="20" y="0" width="4" height="4" fill="#1A3263"/>
    <rect x="16" y="4" width="4" height="4" fill="#1A3263"/>
    <rect x="17" y="1" width="4" height="4" fill="#c0c0c0"/>
    <rect x="13" y="5" width="4" height="4" fill="#c0c0c0"/>
    <rect x="12" y="8" width="4" height="4" fill="#1A3263"/>
    <rect x="13" y="9" width="4" height="4" fill="#d0d0d0"/>
    <rect x="8" y="12" width="4" height="4" fill="#1A3263"/>
    <rect x="9" y="13" width="4" height="4" fill="#c0c0c0"/>
    <rect x="4" y="16" width="4" height="4" fill="#1A3263"/>
    <rect x="5" y="17" width="4" height="4" fill="#d0d0d0"/>
    <rect x="0" y="20" width="4" height="4" fill="#1A3263"/>
    <rect x="1" y="21" width="4" height="4" fill="#c0c0c0"/>
    <!-- Guard -->
    <rect x="0" y="24" width="12" height="4" fill="#FAB95B"/>
    <rect x="4" y="24" width="4" height="4" fill="#d4a04e"/>
    <!-- Handle -->
    <rect x="4" y="28" width="4" height="8" fill="#1A3263"/>
    <!-- Pommel -->
    <rect x="4" y="36" width="4" height="4" fill="#FAB95B"/>
  </g>

  <!-- Right sword (mirrored) -->
  <g transform="translate(212, 6) scale(-1, 1)">
    <!-- Blade with dark outline -->
    <rect x="20" y="0" width="4" height="4" fill="#1A3263"/>
    <rect x="16" y="4" width="4" height="4" fill="#1A3263"/>
    <rect x="17" y="1" width="4" height="4" fill="#c0c0c0"/>
    <rect x="13" y="5" width="4" height="4" fill="#c0c0c0"/>
    <rect x="12" y="8" width="4" height="4" fill="#1A3263"/>
    <rect x="13" y="9" width="4" height="4" fill="#d0d0d0"/>
    <rect x="8" y="12" width="4" height="4" fill="#1A3263"/>
    <rect x="9" y="13" width="4" height="4" fill="#c0c0c0"/>
    <rect x="4" y="16" width="4" height="4" fill="#1A3263"/>
    <rect x="5" y="17" width="4" height="4" fill="#d0d0d0"/>
    <rect x="0" y="20" width="4" height="4" fill="#1A3263"/>
    <rect x="1" y="21" width="4" height="4" fill="#c0c0c0"/>
    <!-- Guard -->
    <rect x="0" y="24" width="12" height="4" fill="#FAB95B"/>
    <rect x="4" y="24" width="4" height="4" fill="#d4a04e"/>
    <!-- Handle -->
    <rect x="4" y="28" width="4" height="8" fill="#1A3263"/>
    <!-- Pommel -->
    <rect x="4" y="36" width="4" height="4" fill="#FAB95B"/>
  </g>

  <!-- Center shield -->
  <g transform="translate(96, 4)">
    <!-- Shield body pixel art -->
    <rect x="12" y="0" width="24" height="4" fill="#1A3263"/>
    <rect x="8" y="4" width="32" height="4" fill="#1A3263"/>
    <rect x="4" y="8" width="40" height="4" fill="#1A3263"/>
    <rect x="4" y="12" width="40" height="4" fill="#547792"/>
    <rect x="4" y="16" width="40" height="4" fill="#1A3263"/>
    <rect x="4" y="20" width="40" height="4" fill="#0f1d3a"/>
    <rect x="4" y="24" width="40" height="4" fill="#1A3263"/>
    <rect x="8" y="28" width="32" height="4" fill="#0f1d3a"/>
    <rect x="8" y="32" width="32" height="4" fill="#1A3263"/>
    <rect x="12" y="36" width="24" height="4" fill="#0f1d3a"/>
    <rect x="16" y="40" width="16" height="4" fill="#1A3263"/>
    <rect x="20" y="44" width="8" height="4" fill="#0f1d3a"/>
    <!-- Shield emblem (star) -->
    <rect x="22" y="12" width="4" height="4" fill="#FAB95B"/>
    <rect x="18" y="16" width="4" height="4" fill="#FAB95B"/>
    <rect x="22" y="16" width="4" height="4" fill="#fcd077"/>
    <rect x="26" y="16" width="4" height="4" fill="#FAB95B"/>
    <rect x="22" y="20" width="4" height="4" fill="#FAB95B"/>
  </g>

  <!-- DEIN text -->
  <text x="36" y="34" font-family="monospace" font-size="16" font-weight="bold" fill="#1A3263" style="letter-spacing: 1px;">DEIN</text>
  
  <!-- MMO text -->
  <text x="160" y="34" font-family="monospace" font-size="16" font-weight="bold" fill="#1A3263" style="letter-spacing: 1px;">MMO</text>
</svg>
